<?xml version="1.0" encoding="UTF-8" standalone="no"?>
<!DOCTYPE svg PUBLIC "-//W3C//DTD SVG 1.1//EN" "http://www.w3.org/Graphics/SVG/1.1/DTD/svg11.dtd">
<svg width="100%" height="100%" viewBox="0 0 9642 8624" version="1.1" xmlns="http://www.w3.org/2000/svg" xmlns:xlink="http://www.w3.org/1999/xlink" xml:space="preserve" xmlns:serif="http://www.serif.com/" style="fill-rule:evenodd;clip-rule:evenodd;stroke-linecap:round;stroke-linejoin:round;stroke-miterlimit:1.5;">
    <g id="Artboard1" transform="matrix(1,0,0,1,0,-111.418)">
        <rect x="0" y="111.418" width="9641.04" height="8623.83" style="fill:none;"/>
        <g transform="matrix(1,0,0,1,0,0.417819)">
            <path d="M5143.16,3826.08C5143.16,3674.42 5320.99,3551.29 5540.03,3551.29C5759.07,3551.29 5936.9,3674.42 5936.9,3826.08C6046.42,3694.74 6289.35,3649.67 6479.04,3725.5C6668.73,3801.33 6733.83,3969.53 6624.31,4100.87C6814,4025.04 7056.92,4070.11 7166.44,4201.45C7275.96,4332.8 7210.87,4501 7021.18,4576.83C7240.22,4576.83 7418.05,4699.96 7418.05,4851.62C7418.05,5003.28 7240.22,5126.41 7021.18,5126.41C7210.87,5202.24 7275.96,5370.44 7166.44,5501.79C7056.92,5633.13 6814,5678.2 6624.31,5602.37C6733.83,5733.71 6668.73,5901.91 6479.04,5977.74C6289.35,6053.57 6046.42,6008.5 5936.9,5877.16C5936.9,6028.82 5759.07,6151.95 5540.03,6151.95C5320.99,6151.95 5143.16,6028.82 5143.16,5877.16C5033.64,6008.5 4790.72,6053.57 4601.03,5977.74C4411.33,5901.91 4346.24,5733.71 4455.76,5602.37C4266.07,5678.2 4023.14,5633.13 3913.62,5501.79C3804.11,5370.44 3869.2,5202.24 4058.89,5126.41C3839.85,5126.41 3662.02,5003.28 3662.02,4851.62C3662.02,4699.96 3839.85,4576.83 4058.89,4576.83C3869.2,4501 3804.11,4332.8 3913.62,4201.45C4023.14,4070.11 4266.07,4025.04 4455.76,4100.87C4346.24,3969.53 4411.33,3801.33 4601.03,3725.5C4790.72,3649.67 5033.64,3694.74 5143.16,3826.08Z" style="fill:none;stroke:black;stroke-width:12.5px;"/>
        </g>
        <g transform="matrix(1.5024,0,0,1,-1152.34,2327.37)">
            <path d="M2087.18,1186.36C2087.18,991.162 1981.71,832.69 1851.79,832.69L1380.99,832.69C1251.07,832.69 1145.59,991.162 1145.59,1186.36L1145.59,2575.04C1145.59,2770.23 1251.07,2928.7 1380.99,2928.7L1851.79,2928.7C1981.71,2928.7 2087.18,2770.23 2087.18,2575.04L2087.18,1186.36Z" style="fill:none;stroke:black;stroke-width:9.79px;"/>
        </g>
        <g transform="matrix(1,0,0,1,-81.9178,-959.684)">
            <path d="M4650.03,2187.62C4650.03,2018.22 4512.5,1880.69 4343.1,1880.69L3144.77,1880.69C2975.38,1880.69 2837.85,2018.22 2837.85,2187.62L2837.85,2801.47C2837.85,2970.87 2975.38,3108.4 3144.77,3108.4L4343.1,3108.4C4512.5,3108.4 4650.03,2970.87 4650.03,2801.47L4650.03,2187.62Z" style="fill:none;stroke:black;stroke-width:12.5px;"/>
        </g>
        <g transform="matrix(1,0,0,1,-2269.05,-1609.14)">
            <path d="M4650.03,2187.62C4650.03,2018.22 4512.5,1880.69 4343.1,1880.69L3144.77,1880.69C2975.38,1880.69 2837.85,2018.22 2837.85,2187.62L2837.85,2801.47C2837.85,2970.87 2975.38,3108.4 3144.77,3108.4L4343.1,3108.4C4512.5,3108.4 4650.03,2970.87 4650.03,2801.47L4650.03,2187.62Z" style="fill:none;stroke:black;stroke-width:12.5px;"/>
        </g>
        <g transform="matrix(1,0,0,1,2863,-1675.06)">
            <path d="M4650.03,2187.62C4650.03,2018.22 4512.5,1880.69 4343.1,1880.69L3144.77,1880.69C2975.38,1880.69 2837.85,2018.22 2837.85,2187.62L2837.85,2801.47C2837.85,2970.87 2975.38,3108.4 3144.77,3108.4L4343.1,3108.4C4512.5,3108.4 4650.03,2970.87 4650.03,2801.47L4650.03,2187.62Z" style="fill:none;stroke:black;stroke-width:12.5px;"/>
        </g>
        <g transform="matrix(1,0,0,1,4325.86,5247.86)">
            <path d="M4650.03,2187.62C4650.03,2018.22 4512.5,1880.69 4343.1,1880.69L3144.77,1880.69C2975.38,1880.69 2837.85,2018.22 2837.85,2187.62L2837.85,2801.47C2837.85,2970.87 2975.38,3108.4 3144.77,3108.4L4343.1,3108.4C4512.5,3108.4 4650.03,2970.87 4650.03,2801.47L4650.03,2187.62Z" style="fill:none;stroke:black;stroke-width:12.5px;"/>
        </g>
        <g transform="matrix(1,0,0,1,0,0.417819)">
            <g transform="matrix(1,-0,-0,1,-0,111)">
                <path d="M3836.42,2153.62L3662.02,2037.3L3673.6,2246.61L3708.51,2118.7L3836.42,2153.62Z"/>
                <path d="M4556.53,3414.49L4568.11,3623.81L4393.71,3507.48L4521.61,3542.4L4556.53,3414.49Z"/>
                <path d="M3708.51,2118.7C3864.17,2391.26 4365.95,3269.85 4521.61,3542.4" style="fill:none;stroke:black;stroke-width:12.5px;"/>
            </g>
        </g>
        <g transform="matrix(0.624959,0,0,1.17454,3026.5,-1243.73)">
            <g transform="matrix(1.60011,-0,-0,0.851396,-4842.73,1153.77)">
                <path d="M7862.97,6982.95L8069.79,7017.14L7973.05,6831.16L7993.9,6962.1L7862.97,6982.95Z"/>
                <path d="M6585.54,6056.54L6488.8,5870.57L6695.62,5904.75L6564.69,5925.61L6585.54,6056.54Z"/>
                <path d="M7993.9,6962.1C7726.78,6768.38 6831.81,6119.33 6564.69,5925.61" style="fill:none;stroke:black;stroke-width:12.5px;"/>
            </g>
        </g>
        <g transform="matrix(3.66467,0,0,3.66467,-8170.52,-3082.8)">
            <text x="3060.96px" y="1222.82px" style="font-family:'Helvetica';font-size:91.667px;">p5.js</text>
        </g>
        <g transform="matrix(3.66467,0,0,3.66467,-3564.94,3128.14)">
            <text x="3060.96px" y="1222.82px" style="font-family:'Helvetica';font-size:91.667px;">p5.js</text>
        </g>
        <g transform="matrix(3.66467,0,0,3.66467,-7071.24,-1601.84)">
            <text x="3060.96px" y="1222.82px" style="font-family:'Helvetica';font-size:91.667px;">MQTT</text>
        </g>
        <g transform="matrix(3.66467,0,0,3.66467,-5253.62,-3744.26)">
            <text x="3060.96px" y="1222.82px" style="font-family:'Helvetica';font-size:91.667px;">MIDI out</text>
            <text x="3157.68px" y="1314.49px" style="font-family:'Helvetica';font-size:91.667px;">app</text>
        </g>
        <g transform="matrix(3.66467,0,0,3.66467,-10378.6,-3678.34)">
            <text x="3089px" y="1222.82px" style="font-family:'Helvetica';font-size:91.667px;">MIDI in</text>
            <text x="3157.68px" y="1314.49px" style="font-family:'Helvetica';font-size:91.667px;">app</text>
        </g>
        <g transform="matrix(3.66467,0,0,3.66467,-10577.4,-323.787)">
            <text x="3089px" y="1222.82px" style="font-family:'Helvetica';font-size:91.667px;">MIDI in</text>
            <text x="3111.85px" y="1314.49px" style="font-family:'Helvetica';font-size:91.667px;">devce</text>
        </g>
        <g transform="matrix(1,0,0,1,0,0.417819)">
            <g transform="matrix(1,-0,-0,1,-0,111)">
                <path d="M2751.92,1213.85L2755.93,1423.44L2585.85,1300.89L2712.41,1340.41L2751.92,1213.85Z"/>
                <path d="M2380.98,708.073C2380.98,708.073 2613.63,1151.94 2712.41,1340.41" style="fill:none;stroke:black;stroke-width:12.5px;"/>
            </g>
        </g>
        <g transform="matrix(3.66467,0,0,3.66467,-6668.65,481.34)">
            <text x="3060.96px" y="1222.82px" style="font-family:'Helvetica';font-size:91.667px;">broker.shiftr.io</text>
        </g>
        <g transform="matrix(3.66467,0,0,3.66467,-3721.44,2036.24)">
            <text x="3060.96px" y="1222.82px" style="font-family:'Helvetica';font-size:91.667px;">MQTT</text>
        </g>
        <g transform="matrix(1,0,0,1,0,0.417819)">
            <g transform="matrix(1,-0,-0,1,-0,111)">
                <path d="M2560.37,1498.97L2755.93,1423.44L2699.01,1625.2L2692.81,1492.76L2560.37,1498.97Z"/>
                <path d="M1276.13,3048.64C1276.13,3048.64 2410.35,1802.98 2692.81,1492.76" style="fill:none;stroke:black;stroke-width:12.5px;"/>
            </g>
        </g>
        <g transform="matrix(1,0,0,1,0,0.417819)">
            <g transform="matrix(1,-0,-0,1,-0,111)">
                <path d="M5592.38,887.459L5700.85,708.073L5492.26,728.927L5621.59,758.133L5592.38,887.459Z"/>
                <path d="M5621.59,758.133C5364.16,920.708 4568.11,1423.44 4568.11,1423.44" style="fill:none;stroke:black;stroke-width:12.5px;"/>
            </g>
        </g>
    </g>
</svg>
